<svg xmlns="http://www.w3.org/2000/svg" width="860" height="380" viewBox="0 0 860 380">
  <defs>
    <style>
      .t{font:700 20px system-ui,Segoe UI,Arial;fill:#0b1e33}
      .p{font:13px system-ui,Segoe UI,Arial;fill:#1f2937}
    </style>
  </defs>
  <rect x="20" y="20" width="820" height="340" rx="16" fill="#fff" stroke="#e5e7eb"/>
  <text x="430" y="46" class="t" text-anchor="middle">刀具磨损三阶段与更换点</text>
  <g transform="translate(60,80)">
    <rect x="0" y="0" width="740" height="220" rx="12" fill="#f8fafc" stroke="#cbd5e1"/>
    <line x1="40" y1="180" x2="700" y2="180" stroke="#94a3b8"/>
    <line x1="40" y1="40" x2="40" y2="180" stroke="#94a3b8"/>
    <text x="30" y="38" class="p">VB</text>
    <text x="698" y="198" class="p">t</text>
    <path d="M40,170 C120,120 160,140 260,150 C360,160 460,150 540,120 C600,100 660,80 700,70" fill="none" stroke="#f97316" stroke-width="3"/>
    <rect x="40" y="140" width="200" height="40" fill="rgba(252,165,165,0.25)"/>
    <rect x="240" y="140" width="260" height="40" fill="rgba(134,239,172,0.25)"/>
    <rect x="500" y="90" width="200" height="90" fill="rgba(253,230,138,0.25)"/>
    <text x="140" y="200" class="p" text-anchor="middle">初期磨损</text>
    <text x="370" y="200" class="p" text-anchor="middle">正常磨损</text>
    <text x="600" y="200" class="p" text-anchor="middle">急剧磨损</text>
    <line x1="460" y1="40" x2="460" y2="180" stroke="#ef4444" stroke-dasharray="6 6"/>
    <text x="460" y="34" class="p" text-anchor="middle" fill="#ef4444">更换/重磨点</text>
    <line x1="0" y1="120" x2="740" y2="120" stroke="#94a3b8" stroke-dasharray="4 6"/>
    <text x="90" y="114" class="p" fill="#6b7280">VB限</text>
  </g>
</svg>
